<mxfile host="app.diagrams.net" modified="2022-03-04T09:18:29.197Z" agent="5.0 (Windows NT 10.0; Win64; x64) AppleWebKit/537.36 (KHTML, like Gecko) Chrome/98.0.4758.102 Safari/537.36" etag="B2KBw-BVEe83-KwqP6ZO" version="15.8.3" type="github">
  <diagram id="LEbInsbmv9OqOF23N20T" name="Page-1">
    <mxGraphModel dx="1701" dy="741" grid="1" gridSize="10" guides="1" tooltips="1" connect="1" arrows="1" fold="1" page="1" pageScale="1" pageWidth="850" pageHeight="1100" math="0" shadow="0">
      <root>
        <mxCell id="0" />
        <mxCell id="1" parent="0" />
        <mxCell id="dVsrb5H4jE_Cry8QKiMx-6" value="" style="rounded=1;whiteSpace=wrap;html=1;rotation=90;" vertex="1" parent="1">
          <mxGeometry x="-220" y="262.5" width="365" height="100" as="geometry" />
        </mxCell>
        <mxCell id="dVsrb5H4jE_Cry8QKiMx-7" value="Academic" style="shape=cylinder3;whiteSpace=wrap;html=1;boundedLbl=1;backgroundOutline=1;size=15;" vertex="1" parent="1">
          <mxGeometry x="-67.5" y="140" width="60" height="70" as="geometry" />
        </mxCell>
        <mxCell id="dVsrb5H4jE_Cry8QKiMx-8" value="Library" style="shape=cylinder3;whiteSpace=wrap;html=1;boundedLbl=1;backgroundOutline=1;size=15;" vertex="1" parent="1">
          <mxGeometry x="-62.5" y="215" width="50" height="70" as="geometry" />
        </mxCell>
        <mxCell id="dVsrb5H4jE_Cry8QKiMx-9" value="Other Sources" style="shape=note;whiteSpace=wrap;html=1;backgroundOutline=1;darkOpacity=0.05;" vertex="1" parent="1">
          <mxGeometry x="-67.5" y="400" width="60" height="80" as="geometry" />
        </mxCell>
        <mxCell id="dVsrb5H4jE_Cry8QKiMx-10" value="Cleasing&lt;br&gt;&lt;br&gt;Srcubbing&lt;br&gt;&lt;br&gt;Deduplication" style="rounded=1;whiteSpace=wrap;html=1;" vertex="1" parent="1">
          <mxGeometry x="112.5" y="250" width="100" height="180" as="geometry" />
        </mxCell>
        <mxCell id="dVsrb5H4jE_Cry8QKiMx-11" value="" style="rounded=1;whiteSpace=wrap;html=1;" vertex="1" parent="1">
          <mxGeometry x="302.5" y="160" width="217.5" height="310" as="geometry" />
        </mxCell>
        <mxCell id="dVsrb5H4jE_Cry8QKiMx-12" value="Extract" style="shape=singleArrow;whiteSpace=wrap;html=1;" vertex="1" parent="1">
          <mxGeometry x="42.5" y="285" width="60" height="60" as="geometry" />
        </mxCell>
        <mxCell id="dVsrb5H4jE_Cry8QKiMx-13" value="" style="shape=singleArrow;whiteSpace=wrap;html=1;arrowWidth=0.37142886207217124;arrowSize=0.42143002464657203;" vertex="1" parent="1">
          <mxGeometry x="230" y="245" width="60" height="60" as="geometry" />
        </mxCell>
        <mxCell id="dVsrb5H4jE_Cry8QKiMx-14" value="Data Warehouse" style="shape=cylinder3;whiteSpace=wrap;html=1;boundedLbl=1;backgroundOutline=1;size=15;" vertex="1" parent="1">
          <mxGeometry x="450" y="275" width="60" height="80" as="geometry" />
        </mxCell>
        <mxCell id="dVsrb5H4jE_Cry8QKiMx-15" value="Data Mart 1&lt;span style=&quot;color: rgba(0 , 0 , 0 , 0) ; font-family: monospace ; font-size: 0px&quot;&gt;%3CmxGraphModel%3E%3Croot%3E%3CmxCell%20id%3D%220%22%2F%3E%3CmxCell%20id%3D%221%22%20parent%3D%220%22%2F%3E%3CmxCell%20id%3D%222%22%20value%3D%22%22%20style%3D%22shape%3Dcylinder3%3BwhiteSpace%3Dwrap%3Bhtml%3D1%3BboundedLbl%3D1%3BbackgroundOutline%3D1%3Bsize%3D15%3B%22%20vertex%3D%221%22%20parent%3D%221%22%3E%3CmxGeometry%20x%3D%2290%22%20y%3D%22230%22%20width%3D%2260%22%20height%3D%2280%22%20as%3D%22geometry%22%2F%3E%3C%2FmxCell%3E%3C%2Froot%3E%3C%2FmxGraphModel%3E&lt;/span&gt;" style="shape=cylinder3;whiteSpace=wrap;html=1;boundedLbl=1;backgroundOutline=1;size=15;" vertex="1" parent="1">
          <mxGeometry x="320" y="180" width="60" height="80" as="geometry" />
        </mxCell>
        <mxCell id="dVsrb5H4jE_Cry8QKiMx-16" value="Data Mart 2&lt;span style=&quot;color: rgba(0 , 0 , 0 , 0) ; font-family: monospace ; font-size: 0px&quot;&gt;%3CmxGraphModel%3E%3Croot%3E%3CmxCell%20id%3D%220%22%2F%3E%3CmxCell%20id%3D%221%22%20parent%3D%220%22%2F%3E%3CmxCell%20id%3D%222%22%20value%3D%22%22%20style%3D%22shape%3Dcylinder3%3BwhiteSpace%3Dwrap%3Bhtml%3D1%3BboundedLbl%3D1%3BbackgroundOutline%3D1%3Bsize%3D15%3B%22%20vertex%3D%221%22%20parent%3D%221%22%3E%3CmxGeometry%20x%3D%2290%22%20y%3D%22230%22%20width%3D%2260%22%20height%3D%2280%22%20as%3D%22geometry%22%2F%3E%3C%2FmxCell%3E%3C%2Froot%3E%3C%2FmxGraphModel%3E&lt;/span&gt;" style="shape=cylinder3;whiteSpace=wrap;html=1;boundedLbl=1;backgroundOutline=1;size=15;" vertex="1" parent="1">
          <mxGeometry x="320" y="275" width="60" height="80" as="geometry" />
        </mxCell>
        <mxCell id="dVsrb5H4jE_Cry8QKiMx-17" value="Data Mart 3&lt;span style=&quot;color: rgba(0 , 0 , 0 , 0) ; font-family: monospace ; font-size: 0px&quot;&gt;%3CmxGraphModel%3E%3Croot%3E%3CmxCell%20id%3D%220%22%2F%3E%3CmxCell%20id%3D%221%22%20parent%3D%220%22%2F%3E%3CmxCell%20id%3D%222%22%20value%3D%22%22%20style%3D%22shape%3Dcylinder3%3BwhiteSpace%3Dwrap%3Bhtml%3D1%3BboundedLbl%3D1%3BbackgroundOutline%3D1%3Bsize%3D15%3B%22%20vertex%3D%221%22%20parent%3D%221%22%3E%3CmxGeometry%20x%3D%2290%22%20y%3D%22230%22%20width%3D%2260%22%20height%3D%2280%22%20as%3D%22geometry%22%2F%3E%3C%2FmxCell%3E%3C%2Froot%3E%3C%2FmxGraphModel%3E&lt;/span&gt;" style="shape=cylinder3;whiteSpace=wrap;html=1;boundedLbl=1;backgroundOutline=1;size=15;" vertex="1" parent="1">
          <mxGeometry x="320" y="370" width="60" height="80" as="geometry" />
        </mxCell>
        <mxCell id="dVsrb5H4jE_Cry8QKiMx-18" value="Finance" style="shape=cylinder3;whiteSpace=wrap;html=1;boundedLbl=1;backgroundOutline=1;size=15;" vertex="1" parent="1">
          <mxGeometry x="-67.5" y="300" width="60" height="80" as="geometry" />
        </mxCell>
        <mxCell id="dVsrb5H4jE_Cry8QKiMx-23" value="" style="shape=flexArrow;endArrow=classic;html=1;rounded=0;entryX=0;entryY=0.5;entryDx=0;entryDy=0;entryPerimeter=0;" edge="1" parent="1" source="dVsrb5H4jE_Cry8QKiMx-16" target="dVsrb5H4jE_Cry8QKiMx-14">
          <mxGeometry width="50" height="50" relative="1" as="geometry">
            <mxPoint x="380" y="315" as="sourcePoint" />
            <mxPoint x="430" y="320" as="targetPoint" />
          </mxGeometry>
        </mxCell>
        <mxCell id="dVsrb5H4jE_Cry8QKiMx-24" value="" style="shape=flexArrow;endArrow=classic;html=1;rounded=0;exitX=1;exitY=0;exitDx=0;exitDy=52.5;exitPerimeter=0;entryX=0.5;entryY=1;entryDx=0;entryDy=0;entryPerimeter=0;" edge="1" parent="1" source="dVsrb5H4jE_Cry8QKiMx-17" target="dVsrb5H4jE_Cry8QKiMx-14">
          <mxGeometry width="50" height="50" relative="1" as="geometry">
            <mxPoint x="390" y="412.5" as="sourcePoint" />
            <mxPoint x="440" y="362.5" as="targetPoint" />
          </mxGeometry>
        </mxCell>
        <mxCell id="dVsrb5H4jE_Cry8QKiMx-27" value="" style="shape=flexArrow;endArrow=classic;html=1;rounded=0;entryX=0.5;entryY=0;entryDx=0;entryDy=0;entryPerimeter=0;exitX=1;exitY=0;exitDx=0;exitDy=52.5;exitPerimeter=0;" edge="1" parent="1" source="dVsrb5H4jE_Cry8QKiMx-15" target="dVsrb5H4jE_Cry8QKiMx-14">
          <mxGeometry width="50" height="50" relative="1" as="geometry">
            <mxPoint x="390" y="250" as="sourcePoint" />
            <mxPoint x="440" y="200" as="targetPoint" />
          </mxGeometry>
        </mxCell>
        <mxCell id="dVsrb5H4jE_Cry8QKiMx-29" value="" style="shape=singleArrow;whiteSpace=wrap;html=1;arrowWidth=0.46190476190476104;arrowSize=0.3833339146205304;" vertex="1" parent="1">
          <mxGeometry x="230" y="370" width="60" height="60" as="geometry" />
        </mxCell>
        <mxCell id="dVsrb5H4jE_Cry8QKiMx-30" value="" style="shape=singleArrow;whiteSpace=wrap;html=1;arrowWidth=0.5142860049293156;arrowSize=0.3452392578124952;" vertex="1" parent="1">
          <mxGeometry x="230" y="305" width="60" height="60" as="geometry" />
        </mxCell>
        <mxCell id="dVsrb5H4jE_Cry8QKiMx-31" value="Load" style="text;html=1;strokeColor=none;fillColor=none;align=center;verticalAlign=middle;whiteSpace=wrap;rounded=0;" vertex="1" parent="1">
          <mxGeometry x="230" y="440" width="60" height="30" as="geometry" />
        </mxCell>
      </root>
    </mxGraphModel>
  </diagram>
</mxfile>
